
 
http://www.imdb.com/title/tt1300854/


[b]Marvel's "Iron Man 3" pits brash-but-brilliant industrialist Tony Stark/Iron Man against an enemy whose reach knows no bounds. When Stark finds his personal world destroyed at his enemy's hands, he embarks on a harrowing quest to find those responsible. This journey, at every turn, will test his mettle. With his back against the wall, Stark is left to survive by his own devices, relying on his ingenuity and instincts to protect those closest to him. As he fights his way back, Stark discovers the answer to the question that has secretly haunted him: does the man make the suit or does the suit make the man? 



Director:
 Shane Black 

Writers:
 Drew Pearce (screenplay), Shane Black (screenplay)

Stars:
 Robert Downey Jr., Gwyneth Paltrow, Guy Pearce

Genres:
  Action |  Sci-Fi |  Thriller 

Country:
 USA | China 

Language:
 English 
[/b]



Format                                   : AVI
Format/Info                              : Audio Video Interleave
File size                                : 1.37 GiB
Duration                                 : 1h 59mn
Overall bit rate                         : 1 636 Kbps
Writing application                      : VirtualDubMod 1.5.10.2 (build 2542/release)
Writing library                          : VirtualDubMod build 2542/release

Video
ID                                       : 0
Format                                   : MPEG-4 Visual
Format profile                           : Advanced Simple@L5
Format settings, BVOP                    : 1
Format settings, QPel                    : No
Format settings, GMC                     : No warppoints
Format settings, Matrix                  : Default (H.263)
Muxing mode                              : Packed bitstream
Codec ID                                 : XVID
Codec ID/Hint                            : XviD
Duration                                 : 1h 59mn
Bit rate                                 : 1 436 Kbps
Width                                    : 636 pixels
Height                                   : 254 pixels
Display aspect ratio                     : 2.504
Frame rate                               : 23.976 fps
Color space                              : YUV
Chroma subsampling                       : 4:2:0
Bit depth                                : 8 bits
Scan type                                : Progressive
Compression mode                         : Lossy
Bits/(Pixel*Frame)                       : 0.371
Stream size                              : 1.20 GiB (88%)
Writing library                          : XviD 64

Audio
ID                                       : 1
Format                                   : AC-3
Format/Info                              : Audio Coding 3
Mode extension                           : CM (complete main)
Format settings, Endianness              : Big
Codec ID                                 : 2000
Duration                                 : 1h 59mn
Bit rate mode                            : Constant
Bit rate                                 : 192 Kbps
Channel(s)                               : 2 channels
Channel positions                        : Front: L R
Sampling rate                            : 48.0 KHz
Bit depth                                : 16 bits
Compression mode                         : Lossy
Stream size                              : 165 MiB (12%)
Alignment                                : Split accross interleaves
Interleave, duration                     : 64 ms (1.53 video frames)
Interleave, preload duration             : 500 ms





    	http://addpix.net/viewer.php?file=43960736890249229394.jpg
    	http://addpix.net/viewer.php?file=70597926474480238127.jpg
    	http://addpix.net/viewer.php?file=86149755593976122156.jpg
    	http://addpix.net/viewer.php?file=00945851441294641335.jpg
    	http://addpix.net/viewer.php?file=02535399953914558125.jpg
    